<mxfile host="65bd71144e">
    <diagram id="HIP3nbAZw_EuaXWnEj3U" name="Page-1">
        <mxGraphModel dx="432" dy="413" grid="1" gridSize="10" guides="1" tooltips="1" connect="1" arrows="1" fold="1" page="1" pageScale="1" pageWidth="850" pageHeight="1100" math="0" shadow="0">
            <root>
                <mxCell id="0"/>
                <mxCell id="1" parent="0"/>
                <mxCell id="2" value="Start" style="strokeWidth=2;html=1;shape=mxgraph.flowchart.terminator;whiteSpace=wrap;" parent="1" vertex="1">
                    <mxGeometry x="220" y="300" width="100" height="60" as="geometry"/>
                </mxCell>
                <mxCell id="3" value="Stop" style="strokeWidth=2;html=1;shape=mxgraph.flowchart.terminator;whiteSpace=wrap;" parent="1" vertex="1">
                    <mxGeometry x="220" y="670" width="100" height="60" as="geometry"/>
                </mxCell>
                <mxCell id="6" value="" style="edgeStyle=orthogonalEdgeStyle;html=1;rounded=0;" edge="1" parent="1" source="2" target="5">
                    <mxGeometry relative="1" as="geometry">
                        <mxPoint x="280" y="370" as="sourcePoint"/>
                        <mxPoint x="280" y="650" as="targetPoint"/>
                    </mxGeometry>
                </mxCell>
                <mxCell id="10" style="edgeStyle=none;html=1;exitX=0.5;exitY=1;exitDx=0;exitDy=0;entryX=0.5;entryY=0;entryDx=0;entryDy=0;" edge="1" parent="1" source="5" target="7">
                    <mxGeometry relative="1" as="geometry"/>
                </mxCell>
                <mxCell id="5" value="Enter the Radius" style="shape=parallelogram;perimeter=parallelogramPerimeter;whiteSpace=wrap;html=1;fixedSize=1;" vertex="1" parent="1">
                    <mxGeometry x="210" y="390" width="120" height="60" as="geometry"/>
                </mxCell>
                <mxCell id="7" value="Volume =&amp;nbsp;&lt;span style=&quot;background-color: transparent;&quot;&gt;&lt;font color=&quot;#000000&quot;&gt;4/&lt;/font&gt;&lt;/span&gt;&lt;span style=&quot;background-color: transparent;&quot;&gt;3 * Ï€ * r&lt;sup&gt;3&lt;/sup&gt;&lt;/span&gt;" style="shape=parallelogram;perimeter=parallelogramPerimeter;whiteSpace=wrap;html=1;fixedSize=1;" vertex="1" parent="1">
                    <mxGeometry x="200" y="480" width="140" height="60" as="geometry"/>
                </mxCell>
                <mxCell id="12" style="edgeStyle=none;html=1;exitX=0.5;exitY=1;exitDx=0;exitDy=0;entryX=0.5;entryY=0;entryDx=0;entryDy=0;entryPerimeter=0;" edge="1" parent="1" source="8" target="3">
                    <mxGeometry relative="1" as="geometry">
                        <mxPoint x="270" y="660" as="targetPoint"/>
                    </mxGeometry>
                </mxCell>
                <mxCell id="8" value="Show &quot;Volume is&quot; + volume + &quot;mm&lt;sup&gt;2&lt;/sup&gt;" style="rounded=1;whiteSpace=wrap;html=1;" vertex="1" parent="1">
                    <mxGeometry x="210" y="570" width="120" height="60" as="geometry"/>
                </mxCell>
                <mxCell id="9" value="&quot;" style="text;html=1;align=center;verticalAlign=middle;whiteSpace=wrap;rounded=0;" vertex="1" parent="1">
                    <mxGeometry x="290" y="600" width="50" height="20" as="geometry"/>
                </mxCell>
                <mxCell id="11" style="edgeStyle=none;html=1;exitX=0.5;exitY=1;exitDx=0;exitDy=0;" edge="1" parent="1" source="7">
                    <mxGeometry relative="1" as="geometry">
                        <mxPoint x="270" y="569" as="targetPoint"/>
                    </mxGeometry>
                </mxCell>
            </root>
        </mxGraphModel>
    </diagram>
</mxfile>